<svg width="224" height="40" fill="none" xmlns="http://www.w3.org/2000/svg">
    <rect y="6" width="56" height="28" rx="2" fill="#E3E6F2"></rect>
    <path
        d="M21.292 13.04V27h-2.8v-5.94h-5.98V27h-2.8V13.04h2.8v5.74h5.98v-5.74h2.8ZM31.248 27l-3.08-5.44h-1.32V27h-2.8V13.04h5.24c1.08 0 2 .193 2.76.58.76.373 1.326.887 1.7 1.54.387.64.58 1.36.58 2.16a4.2 4.2 0 0 1-.8 2.5c-.533.733-1.327 1.24-2.38 1.52l3.34 5.66h-3.24Zm-4.4-7.54h2.34c.76 0 1.327-.18 1.7-.54.373-.373.56-.887.56-1.54 0-.64-.187-1.133-.56-1.48-.373-.36-.94-.54-1.7-.54h-2.34v4.1ZM41.68 27.14c-.973 0-1.853-.167-2.64-.5-.773-.333-1.386-.813-1.84-1.44-.453-.627-.686-1.367-.7-2.22h3c.04.573.24 1.027.6 1.36.374.333.88.5 1.52.5.654 0 1.167-.153 1.54-.46.374-.32.56-.733.56-1.24 0-.413-.126-.753-.38-1.02a2.546 2.546 0 0 0-.96-.62c-.373-.16-.893-.333-1.56-.52-.906-.267-1.646-.527-2.22-.78a4.115 4.115 0 0 1-1.46-1.18c-.4-.533-.6-1.24-.6-2.12 0-.827.207-1.547.62-2.16.414-.613.994-1.08 1.74-1.4.747-.333 1.6-.5 2.56-.5 1.44 0 2.607.353 3.5 1.06.907.693 1.407 1.667 1.5 2.92h-3.08a1.558 1.558 0 0 0-.62-1.18c-.373-.32-.873-.48-1.5-.48-.546 0-.986.14-1.32.42-.32.28-.48.687-.48 1.22 0 .373.12.687.36.94.254.24.56.44.92.6.374.147.894.32 1.56.52.907.267 1.647.533 2.22.8a3.988 3.988 0 0 1 1.48 1.2c.414.533.62 1.233.62 2.1a3.95 3.95 0 0 1-.58 2.08c-.386.64-.953 1.153-1.7 1.54-.746.373-1.633.56-2.66.56Z"
        fill="#04103A"></path>
    <path
        d="M74.66 8.872v8.34h-1.368v-3.648h-3.924v3.648H68v-8.34h1.368v3.576h3.924V8.872h1.368ZM82.58 13.744c0 .248-.015.472-.047.672H77.48c.04.528.236.952.588 1.272.352.32.784.48 1.296.48.736 0 1.256-.308 1.56-.924H82.4a2.998 2.998 0 0 1-1.092 1.5c-.52.384-1.168.576-1.944.576-.632 0-1.2-.14-1.704-.42a3.139 3.139 0 0 1-1.176-1.2c-.28-.52-.42-1.12-.42-1.8 0-.68.136-1.276.408-1.788.28-.52.668-.92 1.164-1.2.504-.28 1.08-.42 1.728-.42.624 0 1.18.136 1.668.408.488.272.868.656 1.14 1.152.272.488.408 1.052.408 1.692Zm-1.427-.432c-.008-.504-.188-.908-.54-1.212-.352-.304-.788-.456-1.308-.456-.472 0-.876.152-1.212.456-.336.296-.536.7-.6 1.212h3.66ZM83.531 13.876c0-.664.136-1.252.408-1.764a3.047 3.047 0 0 1 2.712-1.62c.52 0 .972.104 1.356.312.392.2.704.452.936.756v-.96h1.38v6.612h-1.38v-.984a2.717 2.717 0 0 1-.948.78c-.4.208-.856.312-1.368.312a2.938 2.938 0 0 1-1.56-.432 3.206 3.206 0 0 1-1.128-1.224c-.272-.528-.408-1.124-.408-1.788Zm5.412.024c0-.456-.096-.852-.288-1.188a1.938 1.938 0 0 0-.732-.768 1.93 1.93 0 0 0-.984-.264c-.352 0-.68.088-.984.264-.304.168-.552.42-.744.756-.184.328-.276.72-.276 1.176 0 .456.092.856.276 1.2.192.344.44.608.744.792a1.974 1.974 0 0 0 1.968 0c.304-.176.548-.432.732-.768.192-.344.288-.744.288-1.2ZM93.548 8.332v8.88H92.18v-8.88h1.368ZM97 11.716v3.66c0 .248.056.428.168.54.12.104.32.156.6.156h.84v1.14h-1.08c-.616 0-1.088-.144-1.416-.432-.328-.288-.492-.756-.492-1.404v-3.66h-.78V10.6h.78V8.956H97V10.6h1.608v1.116H97ZM103.349 10.492c.504 0 .952.108 1.344.324.4.216.712.536.936.96.232.424.348.936.348 1.536v3.9h-1.356v-3.696c0-.592-.148-1.044-.444-1.356-.296-.32-.7-.48-1.212-.48s-.92.16-1.224.48c-.296.312-.444.764-.444 1.356v3.696h-1.368v-8.88h1.368v3.036c.232-.28.524-.496.876-.648.36-.152.752-.228 1.176-.228ZM107.326 13.9c0-.68.136-1.276.408-1.788.28-.52.664-.92 1.152-1.2.488-.28 1.048-.42 1.68-.42.8 0 1.46.192 1.98.576.528.376.884.916 1.068 1.62h-1.476a1.56 1.56 0 0 0-.576-.768c-.264-.184-.596-.276-.996-.276-.56 0-1.008.2-1.344.6-.328.392-.492.944-.492 1.656s.164 1.268.492 1.668c.336.4.784.6 1.344.6.792 0 1.316-.348 1.572-1.044h1.476c-.192.672-.552 1.208-1.08 1.608-.528.392-1.184.588-1.968.588-.632 0-1.192-.14-1.68-.42a3.08 3.08 0 0 1-1.152-1.2c-.272-.52-.408-1.12-.408-1.8ZM114.581 13.876c0-.664.136-1.252.408-1.764a3.047 3.047 0 0 1 2.712-1.62c.52 0 .972.104 1.356.312.392.2.704.452.936.756v-.96h1.38v6.612h-1.38v-.984a2.717 2.717 0 0 1-.948.78c-.4.208-.856.312-1.368.312a2.938 2.938 0 0 1-1.56-.432 3.206 3.206 0 0 1-1.128-1.224c-.272-.528-.408-1.124-.408-1.788Zm5.412.024c0-.456-.096-.852-.288-1.188a1.938 1.938 0 0 0-.732-.768 1.93 1.93 0 0 0-.984-.264c-.352 0-.68.088-.984.264-.304.168-.552.42-.744.756-.184.328-.276.72-.276 1.176 0 .456.092.856.276 1.2.192.344.44.608.744.792a1.974 1.974 0 0 0 1.968 0c.304-.176.548-.432.732-.768.192-.344.288-.744.288-1.2ZM124.598 11.56c.2-.336.464-.596.792-.78.336-.192.732-.288 1.188-.288v1.416h-.348c-.536 0-.944.136-1.224.408-.272.272-.408.744-.408 1.416v3.48h-1.368V10.6h1.368v.96ZM133.955 13.744c0 .248-.016.472-.048.672h-5.052c.04.528.236.952.588 1.272.352.32.784.48 1.296.48.736 0 1.256-.308 1.56-.924h1.476a2.998 2.998 0 0 1-1.092 1.5c-.52.384-1.168.576-1.944.576-.632 0-1.2-.14-1.704-.42a3.139 3.139 0 0 1-1.176-1.2c-.28-.52-.42-1.12-.42-1.8 0-.68.136-1.276.408-1.788.28-.52.668-.92 1.164-1.2.504-.28 1.08-.42 1.728-.42.624 0 1.18.136 1.668.408.488.272.868.656 1.14 1.152.272.488.408 1.052.408 1.692Zm-1.428-.432c-.008-.504-.188-.908-.54-1.212-.352-.304-.788-.456-1.308-.456-.472 0-.876.152-1.212.456-.336.296-.536.7-.6 1.212h3.66ZM138.083 13.876c0-.664.136-1.252.408-1.764a3.047 3.047 0 0 1 2.724-1.62c.432 0 .856.096 1.272.288.424.184.76.432 1.008.744V8.332h1.38v8.88h-1.38v-.996a2.55 2.55 0 0 1-.936.792c-.392.208-.844.312-1.356.312a3.021 3.021 0 0 1-1.584-.432 3.206 3.206 0 0 1-1.128-1.224c-.272-.528-.408-1.124-.408-1.788Zm5.412.024c0-.456-.096-.852-.288-1.188a1.938 1.938 0 0 0-.732-.768 1.93 1.93 0 0 0-.984-.264c-.352 0-.68.088-.984.264-.304.168-.552.42-.744.756-.184.328-.276.72-.276 1.176 0 .456.092.856.276 1.2.192.344.44.608.744.792a1.974 1.974 0 0 0 1.968 0c.304-.176.548-.432.732-.768.192-.344.288-.744.288-1.2ZM146.276 13.876c0-.664.136-1.252.408-1.764a3.047 3.047 0 0 1 2.712-1.62c.52 0 .972.104 1.356.312.392.2.704.452.936.756v-.96h1.38v6.612h-1.38v-.984a2.717 2.717 0 0 1-.948.78c-.4.208-.856.312-1.368.312a2.938 2.938 0 0 1-1.56-.432 3.206 3.206 0 0 1-1.128-1.224c-.272-.528-.408-1.124-.408-1.788Zm5.412.024c0-.456-.096-.852-.288-1.188a1.938 1.938 0 0 0-.732-.768 1.93 1.93 0 0 0-.984-.264c-.352 0-.68.088-.984.264-.304.168-.552.42-.744.756-.184.328-.276.72-.276 1.176 0 .456.092.856.276 1.2.192.344.44.608.744.792a1.974 1.974 0 0 0 1.968 0c.304-.176.548-.432.732-.768.192-.344.288-.744.288-1.2ZM156.521 11.716v3.66c0 .248.056.428.168.54.12.104.32.156.6.156h.84v1.14h-1.08c-.616 0-1.088-.144-1.416-.432-.328-.288-.492-.756-.492-1.404v-3.66h-.78V10.6h.78V8.956h1.38V10.6h1.608v1.116h-1.608ZM158.993 13.876c0-.664.136-1.252.408-1.764a3.047 3.047 0 0 1 2.712-1.62c.52 0 .972.104 1.356.312.392.2.704.452.936.756v-.96h1.38v6.612h-1.38v-.984a2.717 2.717 0 0 1-.948.78c-.4.208-.856.312-1.368.312a2.938 2.938 0 0 1-1.56-.432 3.206 3.206 0 0 1-1.128-1.224c-.272-.528-.408-1.124-.408-1.788Zm5.412.024c0-.456-.096-.852-.288-1.188a1.938 1.938 0 0 0-.732-.768 1.93 1.93 0 0 0-.984-.264c-.352 0-.68.088-.984.264-.304.168-.552.42-.744.756-.184.328-.276.72-.276 1.176 0 .456.092.856.276 1.2.192.344.44.608.744.792a1.974 1.974 0 0 0 1.968 0c.304-.176.548-.432.732-.768.192-.344.288-.744.288-1.2ZM72.332 31.56l-1.92-3.336h-1.044v3.336H68v-8.34h2.88c.64 0 1.18.112 1.62.336.448.224.78.524.996.9.224.376.336.796.336 1.26 0 .544-.16 1.04-.48 1.488-.312.44-.796.74-1.452.9l2.064 3.456h-1.632Zm-2.964-4.428h1.512c.512 0 .896-.128 1.152-.384.264-.256.396-.6.396-1.032 0-.432-.128-.768-.384-1.008-.256-.248-.644-.372-1.164-.372h-1.512v2.796ZM81.702 28.092c0 .248-.016.472-.048.672h-5.052c.04.528.236.952.588 1.272.352.32.784.48 1.296.48.736 0 1.256-.308 1.56-.924h1.476a2.998 2.998 0 0 1-1.092 1.5c-.52.384-1.168.576-1.944.576-.632 0-1.2-.14-1.704-.42a3.139 3.139 0 0 1-1.176-1.2c-.28-.52-.42-1.12-.42-1.8 0-.68.136-1.276.408-1.788.28-.52.668-.92 1.164-1.2.504-.28 1.08-.42 1.728-.42.624 0 1.18.136 1.668.408.488.272.868.656 1.14 1.152.272.488.408 1.052.408 1.692Zm-1.428-.432c-.008-.504-.188-.908-.54-1.212-.352-.304-.788-.456-1.308-.456-.472 0-.876.152-1.212.456-.336.296-.536.7-.6 1.212h3.66ZM85.508 31.668c-.52 0-.988-.092-1.404-.276a2.536 2.536 0 0 1-.972-.768 1.943 1.943 0 0 1-.384-1.092h1.416a.99.99 0 0 0 .396.708c.248.184.556.276.924.276.384 0 .68-.072.888-.216.216-.152.324-.344.324-.576 0-.248-.12-.432-.36-.552-.232-.12-.604-.252-1.116-.396a10.83 10.83 0 0 1-1.212-.396 2.176 2.176 0 0 1-.816-.588c-.224-.264-.336-.612-.336-1.044 0-.352.104-.672.312-.96.208-.296.504-.528.888-.696.392-.168.84-.252 1.344-.252.752 0 1.356.192 1.812.576.464.376.712.892.744 1.548h-1.368a.974.974 0 0 0-.36-.708c-.216-.176-.508-.264-.876-.264-.36 0-.636.068-.828.204a.632.632 0 0 0-.288.54c0 .176.064.324.192.444s.284.216.468.288c.184.064.456.148.816.252.48.128.872.26 1.176.396.312.128.58.32.804.576.224.256.34.596.348 1.02 0 .376-.104.712-.312 1.008-.208.296-.504.528-.888.696-.376.168-.82.252-1.332.252ZM95.638 28.092c0 .248-.016.472-.048.672h-5.052c.04.528.236.952.588 1.272.352.32.784.48 1.296.48.736 0 1.256-.308 1.56-.924h1.476a2.998 2.998 0 0 1-1.092 1.5c-.52.384-1.168.576-1.944.576-.632 0-1.2-.14-1.704-.42a3.139 3.139 0 0 1-1.176-1.2c-.28-.52-.42-1.12-.42-1.8 0-.68.136-1.276.408-1.788.28-.52.668-.92 1.164-1.2.504-.28 1.08-.42 1.728-.42.624 0 1.18.136 1.668.408.488.272.868.656 1.14 1.152.272.488.408 1.052.408 1.692Zm-1.428-.432c-.008-.504-.188-.908-.54-1.212-.352-.304-.788-.456-1.308-.456-.472 0-.876.152-1.212.456-.336.296-.536.7-.6 1.212h3.66ZM96.589 28.224c0-.664.136-1.252.408-1.764a3.047 3.047 0 0 1 2.712-1.62c.52 0 .972.104 1.356.312.392.2.704.452.936.756v-.96h1.38v6.612h-1.38v-.984a2.717 2.717 0 0 1-.948.78c-.4.208-.856.312-1.368.312a2.938 2.938 0 0 1-1.56-.432 3.206 3.206 0 0 1-1.128-1.224c-.272-.528-.408-1.124-.408-1.788Zm5.412.024c0-.456-.096-.852-.288-1.188a1.938 1.938 0 0 0-.732-.768 1.931 1.931 0 0 0-.984-.264c-.352 0-.68.088-.984.264-.304.168-.552.42-.744.756-.184.328-.276.72-.276 1.176 0 .456.092.856.276 1.2.192.344.44.608.744.792a1.974 1.974 0 0 0 1.968 0c.304-.176.548-.432.732-.768.192-.344.288-.744.288-1.2ZM106.605 25.908c.2-.336.464-.596.792-.78.336-.192.732-.288 1.188-.288v1.416h-.348c-.536 0-.944.136-1.224.408-.272.272-.408.744-.408 1.416v3.48h-1.368v-6.612h1.368v.96ZM109.447 28.248c0-.68.136-1.276.408-1.788.28-.52.664-.92 1.152-1.2.488-.28 1.048-.42 1.68-.42.8 0 1.46.192 1.98.576.528.376.884.916 1.068 1.62h-1.476a1.56 1.56 0 0 0-.576-.768c-.264-.184-.596-.276-.996-.276-.56 0-1.008.2-1.344.6-.328.392-.492.944-.492 1.656s.164 1.268.492 1.668c.336.4.784.6 1.344.6.792 0 1.316-.348 1.572-1.044h1.476c-.192.672-.552 1.208-1.08 1.608-.528.392-1.184.588-1.968.588-.632 0-1.192-.14-1.68-.42a3.08 3.08 0 0 1-1.152-1.2c-.272-.52-.408-1.12-.408-1.8ZM120.578 24.84c.504 0 .952.108 1.344.324.4.216.712.536.936.96.232.424.348.936.348 1.536v3.9h-1.356v-3.696c0-.592-.148-1.044-.444-1.356-.296-.32-.7-.48-1.212-.48s-.92.16-1.224.48c-.296.312-.444.764-.444 1.356v3.696h-1.368v-8.88h1.368v3.036c.232-.28.524-.496.876-.648.36-.152.752-.228 1.176-.228ZM130.936 31.644c-.56 0-1.064-.096-1.512-.288-.448-.2-.8-.48-1.056-.84a2.118 2.118 0 0 1-.384-1.26h1.464c.032.36.172.656.42.888.256.232.612.348 1.068.348.472 0 .84-.112 1.104-.336a1.13 1.13 0 0 0 .396-.888c0-.28-.084-.508-.252-.684a1.583 1.583 0 0 0-.612-.408c-.24-.096-.576-.2-1.008-.312a10.495 10.495 0 0 1-1.332-.432 2.254 2.254 0 0 1-.864-.696c-.24-.312-.36-.728-.36-1.248 0-.48.12-.9.36-1.26a2.3 2.3 0 0 1 1.008-.828c.432-.192.932-.288 1.5-.288.808 0 1.468.204 1.98.612.52.4.808.952.864 1.656h-1.512c-.024-.304-.168-.564-.432-.78-.264-.216-.612-.324-1.044-.324-.392 0-.712.1-.96.3-.248.2-.372.488-.372.864 0 .256.076.468.228.636.16.16.36.288.6.384.24.096.568.2.984.312.552.152 1 .304 1.344.456.352.152.648.388.888.708.248.312.372.732.372 1.26 0 .424-.116.824-.348 1.2-.224.376-.556.68-.996.912-.432.224-.944.336-1.536.336ZM141.479 24.948v6.612h-1.368v-.78c-.216.272-.5.488-.852.648a2.7 2.7 0 0 1-1.104.228c-.52 0-.988-.108-1.404-.324a2.388 2.388 0 0 1-.972-.96c-.232-.424-.348-.936-.348-1.536v-3.888h1.356v3.684c0 .592.148 1.048.444 1.368.296.312.7.468 1.212.468s.916-.156 1.212-.468c.304-.32.456-.776.456-1.368v-3.684h1.368ZM144.04 24.072a.847.847 0 0 1-.624-.252.847.847 0 0 1-.252-.624c0-.248.084-.456.252-.624a.847.847 0 0 1 .624-.252c.24 0 .444.084.612.252a.847.847 0 0 1 .252.624.847.847 0 0 1-.252.624.833.833 0 0 1-.612.252Zm.672.876v6.612h-1.368v-6.612h1.368ZM148.164 26.064v3.66c0 .248.056.428.168.54.12.104.32.156.6.156h.84v1.14h-1.08c-.616 0-1.088-.144-1.416-.432-.328-.288-.492-.756-.492-1.404v-3.66h-.78v-1.116h.78v-1.644h1.38v1.644h1.608v1.116h-1.608ZM157.152 28.092c0 .248-.016.472-.048.672h-5.052c.04.528.236.952.588 1.272.352.32.785.48 1.297.48.736 0 1.255-.308 1.559-.924h1.476a2.997 2.997 0 0 1-1.091 1.5c-.52.384-1.168.576-1.944.576-.632 0-1.201-.14-1.705-.42a3.139 3.139 0 0 1-1.176-1.2c-.28-.52-.42-1.12-.42-1.8 0-.68.136-1.276.408-1.788.28-.52.668-.92 1.164-1.2.504-.28 1.081-.42 1.729-.42.624 0 1.179.136 1.667.408.488.272.868.656 1.14 1.152.272.488.408 1.052.408 1.692Zm-1.428-.432c-.008-.504-.188-.908-.54-1.212-.352-.304-.788-.456-1.308-.456-.472 0-.876.152-1.212.456-.336.296-.536.7-.6 1.212h3.66Z"
        fill="#E3E6F2"></path>
</svg>