<svg width="48" height="24" fill="none" xmlns="http://www.w3.org/2000/svg">
    <rect width="48" height="24" rx="2" fill="#E3E6F2"></rect>
    <path
        d="M17.926 6.171v11.966h-2.4v-5.091H10.4v5.091H8V6.171h2.4v4.92h5.126v-4.92h2.4ZM26.46 18.137l-2.64-4.663h-1.132v4.663h-2.4V6.171h4.491c.926 0 1.715.166 2.366.498.652.32 1.137.76 1.457 1.32A3.51 3.51 0 0 1 29.1 9.84a3.6 3.6 0 0 1-.685 2.143c-.458.628-1.138 1.063-2.04 1.303l2.863 4.851h-2.778Zm-3.772-6.463h2.006c.651 0 1.137-.154 1.457-.463.32-.32.48-.76.48-1.32 0-.548-.16-.971-.48-1.268-.32-.309-.806-.463-1.457-.463h-2.006v3.514ZM35.401 18.257c-.834 0-1.588-.143-2.262-.428-.663-.286-1.189-.698-1.578-1.235-.388-.537-.588-1.171-.6-1.903h2.572c.034.492.206.88.514 1.166.32.286.755.429 1.303.429.56 0 1-.132 1.32-.395.32-.274.48-.628.48-1.062 0-.355-.108-.646-.326-.875a2.181 2.181 0 0 0-.822-.531c-.32-.137-.766-.286-1.338-.446a15.997 15.997 0 0 1-1.903-.668 3.526 3.526 0 0 1-1.25-1.012c-.344-.457-.515-1.063-.515-1.817 0-.709.177-1.326.531-1.851.354-.526.852-.926 1.492-1.2.64-.286 1.371-.429 2.194-.429 1.234 0 2.234.303 3 .909.777.594 1.206 1.428 1.286 2.502h-2.64a1.335 1.335 0 0 0-.532-1.011c-.32-.274-.748-.411-1.285-.411-.47 0-.846.12-1.132.36-.274.24-.411.588-.411 1.045 0 .32.102.589.308.806.217.206.48.377.789.514.32.126.766.275 1.337.446.777.229 1.411.457 1.903.686.491.228.914.571 1.268 1.028.355.457.532 1.057.532 1.8 0 .64-.166 1.235-.497 1.783-.332.549-.818.989-1.458 1.32-.64.32-1.4.48-2.28.48Z"
        fill="#04103A"></path>
</svg>