<svg width="172" height="28" fill="none" xmlns="http://www.w3.org/2000/svg" alt="full_logo"
    class="logo-img full-logo-img">
    <g clip-path="url(#icn_khc_full_svg__a)">
        <path
            d="m2.765 16.693 5.342 6.596 1.57-1.224-4.522-5.487 3.917-4.94-1.598-1.151-4.71 6.206ZM0 5.763v17.223h2.03V5.316L0 5.764ZM11.477 19.703c0-1.238.403-2.174 1.224-2.823.821-.648 2.002-.964 3.572-.964h2.347v-.778c0-1.886-.82-2.822-2.477-2.822a7 7 0 0 0-1.67.215 8.343 8.343 0 0 0-1.599.562l-.59-1.454a8.09 8.09 0 0 1 1.958-.792 7.919 7.919 0 0 1 2.045-.274c2.866 0 4.291 1.54 4.291 4.608v7.79h-1.497l-.245-1.338a7.558 7.558 0 0 1-1.93 1.137c-.69.274-1.339.404-1.958.404-1.08 0-1.915-.303-2.535-.922-.619-.62-.936-1.469-.936-2.55Zm3.816 1.829c.274 0 .562-.043.864-.115.303-.072.605-.173.908-.288.302-.116.59-.26.85-.432.259-.173.503-.36.705-.548v-2.851h-2.117c-1.066 0-1.858.187-2.347.562-.49.374-.735.965-.735 1.756 0 1.268.634 1.916 1.872 1.916ZM26.223 22.972h-2.03V5.763l2.03-.446v17.655Zm5.43-12.485 1.598 1.152-3.917 4.939 4.536 5.487-1.57 1.224-5.342-6.596 4.694-6.206ZM35.67 19.703c0-1.238.403-2.174 1.224-2.823.821-.648 2.002-.964 3.572-.964h2.347v-.778c0-1.886-.821-2.822-2.477-2.822a7 7 0 0 0-1.67.215 8.34 8.34 0 0 0-1.599.562l-.59-1.454a8.089 8.089 0 0 1 1.958-.792 7.919 7.919 0 0 1 2.045-.274c2.851 0 4.291 1.54 4.291 4.608v7.79h-1.497l-.245-1.338a7.555 7.555 0 0 1-1.93 1.137c-.691.274-1.34.404-1.958.404-1.08 0-1.916-.303-2.535-.922-.633-.62-.936-1.469-.936-2.55Zm3.816 1.829c.274 0 .562-.043.864-.115.303-.072.605-.173.908-.288.302-.116.576-.26.85-.432.258-.173.503-.36.705-.548v-2.851h-2.117c-1.066 0-1.858.187-2.347.562-.49.374-.735.965-.735 1.756 0 1.268.62 1.916 1.872 1.916ZM52.936 10.587c1.685 0 2.996.548 3.96 1.642.965 1.095 1.44 2.679 1.44 4.723 0 2.016-.475 3.572-1.425 4.652-.95 1.08-2.275 1.627-3.96 1.627s-2.996-.547-3.96-1.627c-.965-1.08-1.44-2.636-1.44-4.652 0-2.044.475-3.629 1.454-4.723.95-1.094 2.26-1.642 3.931-1.642Zm0 1.656c-1.065 0-1.872.404-2.448 1.21-.561.806-.85 1.973-.85 3.514 0 1.526.289 2.678.85 3.47.562.778 1.383 1.167 2.448 1.167 1.08 0 1.901-.389 2.463-1.167.562-.777.85-1.93.85-3.47 0-1.541-.288-2.722-.85-3.514-.576-.806-1.397-1.21-2.463-1.21Z"
            fill="#FFCD00"></path>
        <path
            d="M62.023 5.562 65.133 5v6.48c1.023-.763 2.32-1.21 3.457-1.21 2.736 0 4.118 1.7 4.118 4.767v7.848h-3.11v-7.934c0-1.368-.519-1.959-2.16-1.959-.648 0-1.584.188-2.304.461v9.433h-3.11V5.561ZM85.51 16.39c0 .534-.072 1.124-.115 1.398H78.08c.086 1.93 1.166 2.98 3.37 2.98.878 0 2.275-.273 3.11-.676l.691 2.117c-.993.576-2.837 1.05-4.205 1.05-4.118 0-6.134-2.231-6.134-6.48 0-4.09 2.116-6.48 5.486-6.48 3.284-.028 5.112 2.19 5.112 6.092Zm-7.46-.72h4.436c0-2.087-.648-3.038-2.189-3.038-1.41-.014-2.203 1.11-2.246 3.039ZM92.163 15.44h1.945v-.417c0-1.354-.418-2.117-2.247-2.117-1.138 0-2.189.23-3.298.806l-.864-2.13c1.181-.807 2.924-1.297 4.537-1.297 3.139 0 4.78 1.527 4.78 4.723v7.906h-2.188l-.346-1.05c-1.253.978-2.606 1.367-3.701 1.367-2.39 0-3.715-1.411-3.715-3.86 0-2.591 1.77-3.93 5.097-3.93Zm1.945 4.393v-2.405h-1.67c-1.671 0-2.564.677-2.564 1.9 0 .879.518 1.47 1.526 1.47 1.08 0 2.16-.49 2.707-.965ZM103.036 22.886h-3.11V5.561l3.11-.562v17.886ZM104.649 10.876l1.944-.23V8.182l3.168-.677v3.14h3.672v2.346h-3.672v5.328c0 1.901.489 2.247 1.397 2.247.633 0 1.325-.158 2.016-.418l.72 2.19c-.648.417-2.117.907-3.572.907-2.577 0-3.715-1.584-3.715-4.724v-5.53h-1.944v-2.117h-.014ZM115.636 5.562 118.747 5v6.48c1.022-.763 2.318-1.21 3.456-1.21 2.736 0 4.119 1.7 4.119 4.767v7.848h-3.111v-7.934c0-1.368-.504-1.959-2.16-1.959-.648 0-1.584.188-2.304.461v9.433h-3.111V5.561ZM137.698 13.439c-.878-.375-1.714-.648-2.981-.648-1.814 0-3.038 1.094-3.038 3.974 0 2.852 1.252 3.932 3.326 3.932 1.066 0 2.304-.346 3.139-.692l.72 2.16c-1.094.649-2.692 1.095-4.392 1.095-3.974 0-5.933-2.347-5.933-6.466 0-3.946 1.959-6.509 5.977-6.509 1.713 0 3.139.418 4.118 1.051l-.936 2.103ZM145.273 15.44h1.944v-.417c0-1.354-.418-2.117-2.247-2.117-1.137 0-2.189.23-3.298.806l-.864-2.13c1.181-.807 2.924-1.297 4.537-1.297 3.139 0 4.781 1.527 4.781 4.723v7.906h-2.189l-.346-1.05c-1.253.978-2.606 1.367-3.701 1.367-2.39 0-3.715-1.411-3.715-3.86 0-2.591 1.771-3.93 5.098-3.93Zm1.944 4.393v-2.405h-1.671c-1.67 0-2.563.677-2.563 1.9 0 .879.518 1.47 1.526 1.47 1.08 0 2.146-.49 2.708-.965ZM156.145 13.64v9.245h-3.11v-12.24h2.232l.489 1.354c1.052-1.095 2.506-1.714 3.831-1.714.389 0 .749.029 1.051.115l-.331 3.024a7.178 7.178 0 0 0-1.786-.201c-.835-.015-1.685.173-2.376.417ZM172 16.39c0 .534-.072 1.124-.115 1.398h-7.316c.087 1.93 1.167 2.98 3.37 2.98.879 0 2.275-.273 3.111-.676l.691 2.117c-.994.576-2.837 1.05-4.205 1.05-4.119 0-6.135-2.231-6.135-6.48 0-4.09 2.117-6.48 5.487-6.48 3.269-.028 5.112 2.19 5.112 6.092Zm-7.459-.72h4.435c0-2.087-.648-3.038-2.189-3.038-1.411-.014-2.203 1.11-2.246 3.039Z"
            fill="#fff"></path>
    </g>
    <defs>
        <clipPath id="icn_khc_full_svg__a">
            <path fill="#fff" transform="translate(0 5)" d="M0 0h172v18.289H0z"></path>
        </clipPath>
    </defs>
</svg>